<?xml version="1.0" standalone="no"?>
<!DOCTYPE svg PUBLIC "-//W3C//DTD SVG 20010904//EN"
 "http://www.w3.org/TR/2001/REC-SVG-20010904/DTD/svg10.dtd">
<svg version="1.0" xmlns="http://www.w3.org/2000/svg"
 width="1200.000000pt" height="1200.000000pt" viewBox="0 0 1200.000000 1200.000000"
 preserveAspectRatio="xMidYMid meet">
<metadata>
Created by potrace 1.11, written by Peter Selinger 2001-2013
</metadata>
<g transform="translate(0.000000,1200.000000) scale(0.100000,-0.100000)"
fill="#000000" stroke="none">
<path d="M2625 11879 c-190 -142 -214 -164 -197 -181 15 -15 40 -4 106 46 33
26 52 34 59 27 12 -12 -21 -52 -187 -229 -58 -62 -106 -118 -106 -124 0 -6 12
-8 30 -4 35 7 38 -4 9 -30 -12 -10 -35 -37 -51 -59 -16 -22 -52 -65 -81 -95
-84 -89 -93 -100 -75 -100 8 0 36 16 61 35 25 19 48 31 51 26 6 -9 -6 -26
-167 -238 -83 -110 -92 -130 -42 -97 14 9 25 13 25 9 0 -18 -84 -185 -94 -185
-6 0 -26 -29 -44 -64 -18 -35 -52 -93 -75 -127 -91 -136 -119 -199 -82 -185
22 8 20 1 -28 -88 -63 -118 -96 -229 -55 -188 16 16 38 15 38 -2 0 -38 -89
-301 -128 -378 -10 -20 29 -5 46 17 51 64 37 -2 -44 -222 -35 -95 -64 -177
-64 -183 0 -20 19 -9 50 28 l32 37 -5 -80 c-3 -44 -13 -143 -21 -220 -9 -77
-16 -155 -16 -173 0 -45 22 -37 33 11 15 63 25 41 31 -70 10 -179 22 -274 37
-284 11 -6 15 0 17 26 2 19 7 35 12 35 12 0 16 -26 56 -350 8 -62 24 -102 40
-96 9 3 14 -11 19 -52 3 -31 13 -101 20 -155 8 -54 15 -111 15 -128 0 -16 6
-32 14 -35 9 -3 17 -28 21 -67 9 -75 30 -131 48 -124 8 3 23 -25 44 -85 l32
-89 -37 8 c-20 4 -77 8 -127 8 -73 -1 -99 -5 -138 -24 -90 -44 -194 -197 -217
-320 -17 -91 -12 -323 10 -456 77 -469 254 -959 459 -1268 39 -59 71 -110 71
-113 0 -3 29 -40 64 -81 66 -76 94 -125 127 -222 40 -116 75 -146 204 -181 90
-23 279 -30 328 -11 16 6 30 11 32 11 2 0 20 -53 40 -117 96 -314 158 -483
282 -773 74 -173 156 -355 182 -405 62 -118 314 -529 355 -580 18 -22 35 -48
39 -57 18 -48 77 -479 77 -560 0 -33 -5 -40 -42 -62 -24 -13 -81 -34 -127 -46
-94 -24 -268 -99 -381 -165 -128 -75 -220 -113 -380 -159 -212 -60 -445 -105
-620 -121 -80 -7 -248 -41 -370 -75 -41 -11 -187 -50 -325 -87 l-250 -66 -255
-7 c-318 -10 -357 -18 -670 -140 -129 -50 -259 -101 -287 -112 l-53 -21 0
-593 0 -594 2086 0 2086 0 -17 27 c-10 15 -55 77 -100 138 -157 213 -161 221
-189 455 -42 341 -49 470 -40 732 20 588 8 916 -47 1236 -10 63 -19 116 -19
119 0 12 33 -23 172 -185 273 -317 627 -669 998 -990 155 -135 458 -304 602
-337 35 -8 101 -23 148 -34 116 -27 218 -40 395 -50 339 -19 541 25 946 204
92 41 280 158 401 252 106 81 504 488 704 718 38 44 127 158 198 253 71 95
132 172 136 172 4 0 10 -78 14 -173 12 -280 77 -833 114 -972 43 -156 56 -195
65 -195 5 0 7 7 3 15 -7 19 -33 164 -41 230 -10 86 11 28 40 -110 58 -279 81
-656 71 -1172 l-6 -333 135 0 135 0 0 268 c0 301 -18 569 -56 842 -28 201 -81
467 -113 570 -12 36 -21 68 -21 72 0 3 24 -7 54 -23 78 -42 327 -122 491 -157
249 -54 355 -67 715 -90 l115 -7 37 -96 c21 -53 45 -123 54 -155 22 -82 31
-392 14 -532 -14 -122 -84 -409 -136 -557 -20 -55 -38 -108 -41 -117 -5 -17
45 -18 946 -18 l951 0 0 889 0 889 -297 6 c-321 6 -546 19 -768 42 -153 16
-557 103 -615 133 -19 10 -70 37 -113 61 -152 82 -481 177 -712 206 -357 44
-709 10 -882 -87 -29 -16 -53 -26 -53 -22 0 5 -5 50 -10 100 -18 170 -40 551
-33 570 4 10 71 114 151 232 148 222 242 395 373 696 89 204 113 280 185 585
63 264 74 328 110 615 20 162 21 166 39 141 11 -14 31 -20 82 -23 58 -5 79 -1
138 22 39 15 76 32 83 38 32 26 49 86 69 247 10 86 55 213 115 324 33 61 63
116 67 121 11 15 56 151 74 225 24 95 44 201 62 325 9 61 26 166 38 235 19
105 22 162 22 360 -1 319 -24 453 -98 565 -37 58 -96 94 -177 110 l-55 11 -3
42 c-3 43 7 53 27 28 6 -8 20 -16 30 -19 17 -4 19 3 19 102 0 83 5 124 25 191
13 47 28 118 31 159 4 40 16 107 27 148 10 42 23 139 29 217 5 77 14 157 20
176 5 19 10 99 10 178 0 113 3 144 14 148 31 12 39 61 32 187 -4 67 -10 205
-14 307 -4 102 -12 191 -16 198 -5 8 -10 55 -11 105 -3 79 -9 105 -40 181 -60
147 -162 331 -194 351 -6 3 -9 11 -5 16 3 6 15 4 30 -5 54 -36 45 -10 -22 66
-37 41 -74 100 -107 168 -44 91 -52 115 -57 184 -3 53 -9 81 -18 84 -7 2 -16
-5 -19 -17 -10 -41 -32 9 -33 74 0 69 -8 105 -22 105 -5 0 -12 -9 -15 -20 -6
-24 -16 -25 -34 -3 -19 22 -16 132 5 174 17 34 10 54 -16 44 -18 -7 -38 -47
-38 -75 0 -36 -19 -30 -41 12 -18 36 -21 53 -16 119 3 42 12 90 21 107 18 34
21 72 6 72 -13 0 -57 -79 -65 -117 -4 -20 -13 -33 -22 -33 -12 0 -13 8 -8 43
8 56 37 137 48 137 5 0 7 5 5 11 -2 5 -35 12 -73 13 -39 2 -87 9 -107 15 -37
12 -148 104 -138 115 3 3 26 -1 51 -8 59 -18 123 -24 127 -11 2 6 -12 13 -30
16 -46 8 -153 64 -220 115 -71 55 -134 129 -184 217 l-38 67 -2981 0 -2980 -1
-160 -120z m4688 -598 c4 -16 20 -19 178 -24 192 -6 281 -24 479 -92 58 -20
112 -39 122 -42 9 -2 18 -13 21 -23 3 -12 20 -22 48 -29 92 -23 189 -93 189
-137 0 -13 6 -27 13 -31 39 -24 322 -342 360 -405 46 -76 118 -178 126 -178 4
0 18 -19 31 -42 12 -24 17 -37 9 -30 -43 40 -38 -11 8 -78 104 -154 230 -440
240 -545 5 -56 4 -59 -10 -40 -15 19 -16 19 -23 1 -4 -10 -2 -33 5 -50 34 -82
60 -178 66 -241 10 -113 24 -222 45 -350 17 -106 38 -262 70 -515 6 -41 17
-140 25 -220 9 -80 27 -194 39 -255 13 -60 29 -155 36 -210 16 -134 31 -682
20 -731 -8 -35 1 -67 14 -53 5 5 44 182 53 244 4 22 15 53 25 70 10 16 18 40
18 52 0 12 5 23 11 25 6 2 14 31 18 63 6 60 6 60 56 87 98 54 98 54 103 40 5
-17 39 -15 46 3 12 34 145 8 194 -38 13 -12 37 -47 52 -78 48 -94 61 -180 67
-440 5 -208 3 -257 -17 -400 -55 -413 -84 -564 -130 -690 -28 -75 -104 -227
-143 -282 -21 -30 -87 -236 -87 -271 0 -11 -7 -61 -16 -109 -18 -99 -23 -104
-117 -137 -53 -19 -58 -19 -121 -3 -73 18 -71 13 -56 111 26 177 63 670 64
862 1 199 -5 260 -24 260 -16 0 -19 -31 -25 -270 -7 -247 -42 -653 -74 -855
-11 -66 -22 -147 -26 -180 -16 -157 -71 -459 -116 -640 -28 -110 -57 -229 -64
-264 -39 -176 -194 -562 -311 -779 -55 -101 -290 -453 -310 -465 -8 -4 -21
-24 -29 -43 -8 -19 -52 -83 -98 -142 -46 -59 -119 -154 -162 -212 -95 -128
-274 -340 -286 -340 -5 0 -9 5 -9 10 0 6 -5 10 -11 10 -7 0 -9 -10 -5 -25 5
-20 -5 -36 -61 -97 -38 -40 -78 -81 -91 -91 -12 -10 -43 -42 -70 -70 -120
-132 -265 -268 -347 -326 -156 -111 -499 -258 -765 -328 -112 -30 -157 -37
-265 -40 l-130 -5 -33 56 c-18 31 -37 56 -43 56 -17 0 -9 -37 17 -75 l25 -38
-93 7 c-89 7 -107 14 -108 44 0 10 5 9 22 -2 28 -20 48 -20 48 -1 0 8 -6 15
-13 15 -8 0 -24 11 -37 25 -13 14 -27 25 -31 25 -5 0 -7 -22 -6 -50 2 -44 0
-50 -18 -50 -11 0 -32 7 -47 14 -15 8 -30 11 -33 7 -9 -16 -99 9 -126 35 -25
23 -28 24 -37 9 -8 -15 -14 -16 -38 -7 -16 6 -23 11 -16 11 20 1 14 21 -7 21
-10 0 -24 7 -31 15 -13 15 -40 21 -40 8 0 -3 7 -15 17 -25 9 -10 12 -18 6 -18
-21 0 -103 32 -103 41 0 5 -9 9 -20 9 -11 0 -20 7 -20 16 0 11 -6 13 -19 9
-25 -8 -116 36 -98 47 8 6 6 10 -9 14 -12 3 -43 37 -69 75 -47 68 -74 83 -54
31 6 -15 18 -36 28 -47 36 -40 35 -49 -5 -25 -87 53 -106 68 -92 74 10 4 10 7
1 12 -23 11 -63 46 -63 55 0 5 12 9 28 9 l27 1 -30 16 c-16 9 -35 22 -43 30
-20 20 -32 7 -22 -27 5 -17 6 -30 2 -30 -19 0 -320 277 -362 332 -27 36 -66
77 -87 93 -91 69 -439 427 -612 628 -354 416 -481 629 -763 1281 -118 275
-257 655 -318 876 -86 307 -150 577 -150 628 0 65 -12 94 -31 75 -8 -8 -10
-45 -6 -125 4 -92 14 -150 55 -308 27 -107 52 -207 56 -221 5 -23 1 -28 -25
-39 -43 -18 -244 -7 -334 19 -84 24 -103 44 -140 150 -28 80 -99 196 -144 234
-50 42 -245 387 -314 557 -112 273 -177 501 -253 880 -23 115 -26 356 -4 353
8 -1 24 12 35 29 29 46 107 90 169 96 l51 4 -32 -33 c-80 -85 -99 -274 -49
-491 24 -104 164 -445 173 -421 2 6 -7 37 -20 70 -84 201 -131 405 -131 568 0
129 14 178 70 252 13 17 24 37 24 43 0 30 135 -25 225 -92 89 -66 244 -217
251 -244 3 -13 11 -22 18 -21 8 1 11 -36 12 -128 2 -185 2 -185 19 -185 11 0
15 12 16 48 l1 47 9 -55 c4 -30 6 -97 4 -147 -5 -97 9 -127 22 -50 7 41 7 41
14 12 4 -16 7 -50 6 -75 0 -25 -2 -35 -4 -22 -5 23 -32 31 -34 10 -1 -7 -1
-35 0 -63 1 -31 -7 -79 -23 -128 -41 -122 -38 -141 39 -227 64 -74 105 -153
119 -230 l6 -35 -14 30 c-8 17 -39 54 -69 83 -66 61 -103 68 -151 27 -43 -37
-96 -34 -130 5 -36 44 -110 200 -141 300 -15 47 -28 91 -30 98 -3 6 -9 12 -15
12 -12 0 -12 -2 0 -36 6 -14 15 -57 20 -94 12 -81 31 -143 72 -228 64 -130
145 -165 241 -101 35 23 50 28 64 20 37 -19 123 -121 129 -151 6 -29 24 -52
24 -31 0 6 7 11 16 11 15 0 16 9 11 73 -10 117 -44 191 -128 282 -56 61 -56
54 -7 242 7 28 15 40 24 36 9 -3 14 2 14 16 0 12 4 21 9 21 10 0 17 -25 26
-95 11 -95 28 -180 36 -185 4 -3 13 -46 20 -95 6 -50 15 -93 18 -97 3 -4 4
150 2 342 -2 202 2 405 8 482 16 197 27 963 14 991 -24 49 -35 188 -22 287 16
137 17 135 -3 132 -14 -2 -17 3 -13 25 3 15 14 84 26 153 33 192 34 200 15
200 -14 0 -16 8 -10 53 7 55 118 403 136 424 6 7 7 20 4 30 -6 15 -9 15 -27
-4 -11 -11 -32 -49 -45 -84 l-25 -64 5 47 c5 44 67 218 136 383 34 83 39 106
23 112 -7 3 -28 -25 -48 -64 -33 -63 -35 -63 -19 0 3 12 30 72 59 132 96 201
173 465 159 548 -3 22 0 64 9 100 9 34 21 89 27 122 18 94 120 392 139 405 4
3 20 22 35 42 33 44 50 41 32 -5 -7 -17 -16 -45 -20 -60 -12 -52 12 -19 69 92
49 96 66 119 153 203 53 52 122 108 152 125 30 17 103 59 162 95 86 52 120 67
175 76 107 18 217 31 368 42 364 27 440 33 444 36 1 1 0 7 -4 13 -4 7 -49 11
-117 11 -216 0 -97 10 238 20 439 13 730 31 1016 64 78 8 124 9 172 1 72 -12
92 -1 25 12 -39 8 -30 11 122 41 90 17 207 36 259 41 129 13 608 17 694 6 62
-7 69 -6 63 8 -6 16 0 17 114 25 19 1 28 -4 32 -17z m-2983 -201 c0 -5 -8 -10
-17 -10 -15 0 -16 2 -3 10 19 12 20 12 20 0z m93 3 c-13 -2 -35 -2 -50 0 -16
2 -5 4 22 4 28 0 40 -2 28 -4z m-2435 -3738 c86 -20 126 -44 151 -92 11 -21
33 -50 49 -65 19 -18 34 -45 42 -78 15 -64 33 -76 25 -18 -4 29 -3 38 3 28 15
-23 52 -206 52 -253 l-1 -42 -22 30 c-72 98 -226 227 -327 273 -45 21 -71 26
-145 26 -77 1 -98 -3 -145 -25 -56 -27 -120 -80 -120 -101 0 -6 -2 -9 -5 -6
-8 7 23 115 46 160 23 45 101 133 134 150 55 30 164 35 263 13z m1785 -5212
c3 -5 8 -55 12 -113 6 -96 5 -107 -13 -128 -11 -12 -23 -39 -27 -60 -3 -20
-17 -71 -30 -112 -13 -41 -33 -124 -45 -183 -17 -81 -34 -132 -71 -204 -27
-53 -61 -136 -76 -185 -14 -48 -29 -88 -32 -88 -4 0 -20 39 -36 88 -71 218
-73 304 -10 522 67 236 94 294 173 375 75 76 140 113 155 88z m-152 -1073 l-6
-225 -47 78 c-27 43 -48 83 -48 90 0 30 97 296 104 285 1 -1 0 -104 -3 -228z"/>
<path d="M8210 8915 c-8 -2 -49 -8 -90 -15 -258 -40 -507 -97 -680 -157 -223
-77 -535 -248 -599 -329 -28 -36 -26 -82 6 -150 51 -108 108 -117 316 -49 75
24 196 55 269 69 73 13 219 40 323 60 263 48 422 62 680 60 131 -2 267 -30
374 -80 51 -23 53 -23 36 -4 -19 21 -19 21 26 14 73 -10 116 -23 129 -39 18
-22 44 -20 35 3 -4 9 -11 49 -15 87 -17 141 -55 221 -161 345 -50 59 -122 107
-216 146 -32 13 -49 24 -38 24 l20 1 -20 9 c-18 8 -359 12 -395 5z"/>
<path d="M3965 8720 c-124 -13 -217 -58 -345 -166 -121 -102 -251 -265 -302
-381 -21 -48 -73 -262 -65 -269 7 -7 136 58 189 94 127 87 406 201 578 236
214 43 388 42 870 -4 285 -28 313 -32 336 -47 30 -19 171 -38 219 -29 51 10
111 69 120 119 15 81 -69 190 -169 219 -23 6 -46 15 -52 19 -22 17 -244 98
-364 134 -69 20 -138 41 -155 47 -16 6 -79 14 -140 19 -150 13 -634 19 -720 9z"/>
<path d="M7749 7699 c-170 -25 -417 -113 -459 -165 -10 -11 6 -6 46 14 82 41
282 108 368 123 207 35 432 -32 730 -217 65 -41 86 -48 72 -26 -11 18 -204
143 -273 176 -96 48 -219 84 -321 96 -48 5 -91 9 -97 9 -5 -1 -35 -5 -66 -10z"/>
<path d="M7681 7535 c-180 -28 -324 -79 -402 -144 -69 -57 -155 -222 -142
-271 6 -23 23 -27 23 -5 0 26 37 35 147 37 97 2 117 0 193 -26 82 -28 91 -29
285 -30 181 -1 208 1 280 22 89 26 208 80 273 123 24 16 45 29 48 29 3 0 28
-16 56 -35 31 -20 55 -30 58 -24 7 10 54 -22 77 -51 6 -8 15 -12 19 -8 11 12
-135 152 -211 200 -126 82 -259 147 -340 168 -108 27 -248 33 -364 15z m320
-127 c27 -22 52 -39 55 -35 3 3 -4 10 -15 17 -12 6 -21 15 -21 20 0 5 21 -4
47 -20 33 -21 49 -27 54 -18 5 8 17 4 41 -14 37 -28 101 -58 125 -58 13 0 13
3 2 18 -13 15 -12 16 3 3 10 -7 15 -18 11 -24 -4 -6 0 -8 10 -4 29 11 18 -7
-16 -27 -122 -72 -158 -89 -221 -107 -39 -11 -104 -22 -145 -26 l-74 -6 40 54
c22 30 45 69 52 88 14 42 14 121 1 155 -5 14 -7 26 -4 26 3 0 28 -19 55 -42z
m-619 -57 c-3 -48 0 -70 21 -115 l25 -55 -89 0 c-49 0 -105 -3 -124 -7 -21 -4
-35 -2 -35 4 0 21 30 79 62 120 30 38 121 112 138 112 3 0 4 -27 2 -59z m189
49 c24 -13 25 -57 2 -82 -20 -22 -31 -23 -55 -1 -24 21 -23 48 2 73 23 23 25
23 51 10z"/>
<path d="M4705 7499 c-114 -9 -213 -24 -300 -45 -105 -26 -558 -254 -540 -272
2 -2 18 1 36 7 28 10 30 9 18 -6 -13 -15 -11 -16 13 -10 18 5 32 2 42 -8 8 -8
17 -15 21 -15 3 0 32 19 63 42 31 23 51 34 43 25 -8 -10 -11 -20 -8 -23 7 -8
47 14 47 26 0 6 5 10 10 10 6 0 -1 -18 -15 -40 -29 -46 -30 -50 -12 -50 7 0
28 20 47 45 19 25 36 45 38 45 2 0 22 -16 44 -35 49 -42 165 -91 262 -112 85
-18 365 -11 431 11 61 21 155 36 282 47 105 8 117 7 154 -11 21 -11 39 -16 39
-11 0 22 -123 171 -172 208 -74 56 -204 128 -274 151 -75 25 -144 30 -269 21z
m437 -142 c31 -17 89 -63 130 -102 l72 -70 -84 -6 c-47 -4 -125 -16 -174 -28
-49 -12 -91 -19 -94 -17 -2 3 5 20 16 38 32 52 44 115 34 179 l-9 57 26 -9
c14 -5 52 -24 83 -42z m-682 -38 c0 -82 17 -125 69 -177 l35 -35 -37 7 c-68
13 -218 74 -243 100 l-26 25 29 40 c28 41 47 54 37 26 -11 -28 4 -15 25 21 26
43 39 39 17 -5 -9 -16 -16 -33 -16 -37 0 -12 32 20 61 63 17 24 34 43 39 43 6
0 10 -32 10 -71z m240 29 c25 -27 25 -40 1 -62 -26 -23 -52 -17 -70 16 -14 24
-14 28 3 47 24 27 40 26 66 -1z m-440 -82 c0 -11 -19 -15 -25 -6 -3 5 1 10 9
10 9 0 16 -2 16 -4z"/>
<path d="M9810 7336 c-175 -65 -266 -156 -295 -297 -17 -80 -18 -99 -7 -99 4
0 19 35 32 78 27 85 79 158 147 205 39 28 41 29 72 12 41 -21 86 -92 114 -180
19 -62 22 -93 22 -263 0 -123 4 -191 10 -189 14 5 36 288 29 362 -13 118 -66
242 -125 288 l-32 25 51 16 c27 9 68 16 91 15 49 -3 63 7 37 27 -24 17 -99 17
-146 0z"/>
<path d="M9550 6794 c-22 -25 -28 -40 -21 -47 7 -7 17 -2 31 16 26 33 80 36
127 7 35 -21 93 -94 93 -117 0 -13 12 -18 22 -7 11 11 -23 99 -50 127 -38 41
-74 57 -125 57 -39 0 -49 -5 -77 -36z"/>
<path d="M9544 6635 c-3 -13 -4 -82 -2 -152 4 -128 4 -128 46 -210 34 -67 42
-93 42 -137 0 -53 -28 -144 -70 -226 -11 -21 -31 -78 -45 -126 -22 -77 -24
-90 -11 -102 13 -13 15 -10 21 21 4 20 13 38 21 41 8 3 14 17 14 30 0 36 37
130 59 150 11 10 42 19 77 22 98 9 102 10 130 65 23 46 68 256 58 268 -10 11
-25 -23 -57 -132 -41 -138 -56 -161 -108 -154 -20 2 -44 0 -53 -5 -27 -15 -27
-6 -5 58 29 83 23 151 -23 229 -51 90 -58 117 -58 241 0 62 -3 119 -6 128 -9
24 -23 19 -30 -9z"/>
<path d="M2229 6426 c-50 -18 -72 -35 -130 -101 -57 -65 -58 -87 -1 -33 87 84
211 114 239 58 16 -33 37 -32 41 1 2 19 -5 33 -28 53 -17 14 -38 26 -45 26 -7
0 -19 2 -27 5 -7 2 -29 -2 -49 -9z"/>
<path d="M5459 5582 c-57 -37 -112 -101 -147 -172 -22 -46 -27 -71 -30 -158
-3 -79 0 -113 12 -147 21 -54 91 -120 142 -134 74 -21 258 -8 274 19 7 11 21
12 77 1 79 -14 154 -47 238 -106 152 -105 255 -145 374 -145 113 0 188 26 307
107 129 88 172 102 301 103 101 0 128 9 104 33 -8 8 -49 12 -109 12 -109 0
-167 -18 -257 -83 -143 -102 -319 -146 -446 -112 -55 15 -167 71 -239 120
-158 107 -302 144 -405 103 -49 -19 -165 -18 -215 3 -107 45 -146 169 -105
329 24 90 94 188 157 221 15 8 28 19 28 24 0 16 -13 12 -61 -18z"/>
<path d="M7190 5537 c0 -7 18 -31 41 -52 84 -82 131 -176 131 -262 -1 -104
-97 -233 -201 -270 -37 -13 -51 -23 -51 -36 0 -17 5 -18 38 -12 65 12 134 57
184 124 84 110 97 218 42 342 -40 89 -184 219 -184 166z"/>
<path d="M6650 4627 c0 -17 112 -137 129 -137 7 0 -17 34 -54 75 -37 41 -69
75 -71 75 -2 0 -4 -6 -4 -13z"/>
<path d="M5171 4579 c-48 -48 -47 -67 2 -22 17 16 43 37 57 46 23 16 23 17 3
17 -11 0 -39 -19 -62 -41z"/>
<path d="M6980 4569 c42 -36 90 -63 90 -51 0 10 -104 82 -117 82 -5 0 8 -14
27 -31z"/>
<path d="M5051 4535 c-43 -48 -64 -85 -46 -85 15 0 112 127 103 136 -3 2 -28
-21 -57 -51z"/>
<path d="M7170 4581 c0 -22 30 -70 49 -81 33 -17 32 -12 -5 38 -45 59 -44 58
-44 43z"/>
<path d="M7350 4558 c0 -22 53 -82 68 -77 6 2 -7 24 -28 49 -27 31 -39 40 -40
28z"/>
<path d="M6840 4526 c0 -7 7 -19 15 -26 16 -13 20 -3 9 24 -8 20 -24 21 -24 2z"/>
<path d="M7706 4521 c-7 -11 38 -67 65 -82 29 -15 22 2 -21 49 -21 23 -41 38
-44 33z"/>
<path d="M7570 4505 c0 -21 83 -80 89 -64 2 7 -7 20 -20 28 -13 9 -32 24 -41
34 -22 21 -28 21 -28 2z"/>
<path d="M4900 4475 c-13 -14 -20 -28 -17 -32 8 -7 57 35 57 49 0 15 -16 8
-40 -17z"/>
<path d="M6970 4473 c0 -19 53 -93 67 -93 15 0 15 2 1 18 -9 9 -23 32 -32 50
-15 28 -36 44 -36 25z"/>
<path d="M7400 4453 c0 -23 16 -48 23 -37 5 10 -9 54 -18 54 -3 0 -5 -8 -5
-17z"/>
<path d="M7240 4441 c0 -13 69 -65 76 -58 6 6 -56 66 -68 67 -5 0 -8 -4 -8 -9z"/>
<path d="M7529 4432 c14 -27 101 -105 109 -98 6 7 -97 116 -111 116 -4 0 -3
-8 2 -18z"/>
<path d="M6860 4431 c0 -17 52 -51 78 -51 23 0 20 3 -21 30 -52 33 -57 35 -57
21z"/>
<path d="M7104 4411 c26 -27 56 -41 56 -26 0 11 -40 43 -62 50 -22 7 -22 6 6
-24z"/>
<path d="M4744 4406 c-38 -32 -27 -42 11 -11 17 13 27 26 24 30 -4 3 -20 -5
-35 -19z"/>
<path d="M5035 4400 c-3 -5 -2 -10 4 -10 5 0 13 5 16 10 3 6 2 10 -4 10 -5 0
-13 -4 -16 -10z"/>
<path d="M4584 4333 c-58 -62 -74 -96 -23 -47 40 37 93 104 83 104 -4 0 -31
-26 -60 -57z"/>
<path d="M5045 4357 c-11 -17 -21 -35 -23 -38 -1 -3 5 -6 14 -6 13 0 44 50 44
72 0 15 -17 1 -35 -28z"/>
<path d="M7690 4383 c0 -15 48 -68 55 -61 8 8 -32 68 -46 68 -5 0 -9 -3 -9 -7z"/>
<path d="M5161 4348 c-6 -17 -9 -33 -7 -35 5 -6 23 20 30 45 11 35 -11 26 -23
-10z"/>
<path d="M7220 4371 c0 -5 7 -11 15 -15 8 -3 15 -1 15 3 0 5 -7 11 -15 15 -8
3 -15 1 -15 -3z"/>
<path d="M7487 4354 c9 -15 19 -21 21 -15 4 13 -16 41 -29 41 -5 0 -2 -12 8
-26z"/>
<path d="M7890 4376 c0 -12 32 -77 36 -73 6 6 -22 77 -30 77 -4 0 -6 -2 -6 -4z"/>
<path d="M4893 4348 c-27 -30 -56 -88 -44 -88 5 0 20 15 32 33 13 17 29 38 36
45 15 15 17 32 5 32 -5 0 -18 -10 -29 -22z"/>
<path d="M4766 4294 c-10 -14 -16 -33 -14 -42 2 -12 10 -6 26 21 25 42 26 47
13 47 -5 0 -16 -12 -25 -26z"/>
<path d="M4720 4275 c-13 -34 -24 -81 -18 -75 14 13 46 100 37 100 -5 0 -14
-11 -19 -25z"/>
<path d="M4653 4268 c-16 -20 -25 -57 -17 -69 4 -7 13 6 21 31 15 44 13 60 -4
38z"/>
<path d="M7700 4259 c0 -6 5 -20 11 -32 l12 -22 -25 23 c-13 12 -30 22 -36 22
-38 0 22 -59 72 -70 20 -4 36 -4 36 0 0 5 -12 27 -27 49 -26 40 -43 52 -43 30z"/>
<path d="M4522 4230 c-7 -11 -12 -28 -12 -37 1 -10 7 -3 16 16 16 38 14 50 -4
21z"/>
<path d="M4430 4195 c-15 -19 -60 -113 -60 -127 0 -21 22 6 47 60 14 31 30 59
35 60 11 5 10 22 -1 22 -5 0 -14 -7 -21 -15z"/>
<path d="M8020 4198 c0 -25 12 -58 21 -58 10 0 12 31 3 54 -7 19 -24 21 -24 4z"/>
<path d="M7830 4187 c0 -16 31 -47 48 -47 17 0 15 15 -5 32 -30 26 -43 30 -43
15z"/>
<path d="M7960 4191 c0 -6 5 -13 10 -16 6 -3 10 1 10 9 0 9 -4 16 -10 16 -5 0
-10 -4 -10 -9z"/>
<path d="M7940 4139 c0 -17 20 -49 31 -49 5 0 3 14 -6 30 -16 31 -25 38 -25
19z"/>
<path d="M4537 4103 c-10 -18 -18 -141 -9 -147 6 -3 13 26 17 70 6 70 4 97 -8
77z"/>
<path d="M4640 4092 c0 -10 -7 -28 -16 -40 -13 -18 -13 -22 -1 -22 16 0 49 59
41 72 -9 14 -24 8 -24 -10z"/>
<path d="M4823 4053 c-34 -7 -41 -44 -12 -63 13 -8 64 -49 114 -91 134 -112
204 -158 375 -247 288 -150 447 -211 680 -259 122 -25 154 -27 330 -27 161 1
212 4 294 22 281 62 613 211 763 342 41 36 88 75 104 87 36 26 229 210 229
218 0 11 -35 4 -123 -24 -135 -44 -197 -60 -342 -91 -71 -16 -157 -35 -190
-43 -104 -27 -266 -39 -542 -40 -413 -3 -460 2 -908 88 -289 56 -450 85 -556
100 -53 8 -109 19 -123 25 -27 10 -52 11 -93 3z m336 -104 c41 -11 85 -19 98
-19 23 0 115 -17 358 -65 239 -48 557 -88 695 -88 456 -1 602 11 885 74 50 11
99 21 110 24 11 2 34 10 52 16 42 17 49 8 33 -43 -15 -47 -66 -107 -118 -140
-31 -19 -34 -19 -52 -3 -17 16 -19 15 -35 -18 -24 -50 -173 -125 -191 -96 -10
18 -32 9 -38 -16 -11 -42 -111 -84 -143 -59 -25 19 -30 17 -37 -9 -5 -21 -19
-27 -118 -51 -62 -16 -147 -30 -189 -33 -74 -5 -78 -5 -100 21 -29 33 -35 33
-42 -4 -6 -30 -7 -30 -74 -30 -38 0 -111 7 -163 14 -80 12 -98 19 -117 41 -13
14 -23 33 -23 41 0 24 -24 15 -42 -16 l-17 -29 -48 14 c-26 9 -67 20 -91 26
-27 8 -51 23 -67 43 -22 27 -27 30 -45 18 -17 -10 -33 -6 -113 31 -58 27 -101
55 -115 73 -17 23 -24 26 -31 15 -7 -11 -20 -7 -70 19 -34 19 -74 47 -88 64
-14 17 -36 31 -48 32 -37 2 -113 44 -135 74 -12 17 -20 44 -20 69 0 40 0 40
33 35 17 -4 65 -15 106 -25z"/>
<path d="M4411 4032 c-13 -25 -14 -32 -2 -32 9 0 23 41 16 48 -2 2 -8 -5 -14
-16z"/>
<path d="M4461 4031 c-14 -25 -1 -35 15 -13 16 20 17 32 4 32 -5 0 -14 -8 -19
-19z"/>
<path d="M4390 3945 c0 -8 5 -15 10 -15 6 0 10 7 10 15 0 8 -4 15 -10 15 -5 0
-10 -7 -10 -15z"/>
<path d="M4491 3010 c0 -51 3 -69 9 -55 12 27 12 97 0 115 -7 10 -10 -8 -9
-60z"/>
<path d="M8010 3064 c0 -11 7 -29 16 -40 15 -18 15 -18 9 11 -8 37 -25 57 -25
29z"/>
<path d="M4401 3024 c0 -11 3 -14 6 -6 3 7 2 16 -1 19 -3 4 -6 -2 -5 -13z"/>
<path d="M4260 2973 c-6 -32 -12 -66 -14 -75 -2 -10 0 -20 4 -23 5 -3 14 21
20 52 6 32 14 65 16 75 3 9 0 19 -5 22 -5 4 -14 -19 -21 -51z"/>
<path d="M4370 2911 c0 -16 9 -39 21 -52 18 -21 20 -21 14 -4 -4 11 -11 35
-17 53 -11 40 -18 41 -18 3z"/>
<path d="M4520 2871 c0 -17 5 -33 10 -36 6 -4 10 8 10 29 0 20 -4 36 -10 36
-5 0 -10 -13 -10 -29z"/>
<path d="M7940 2847 c0 -13 7 -32 15 -43 14 -18 14 -18 15 8 0 32 -9 58 -21
58 -5 0 -9 -10 -9 -23z"/>
<path d="M4280 2815 c0 -19 5 -35 10 -35 6 0 10 16 10 35 0 19 -4 35 -10 35
-5 0 -10 -16 -10 -35z"/>
<path d="M4356 2804 c-3 -9 -6 -25 -6 -37 1 -21 1 -21 15 3 8 14 14 31 15 38
0 17 -17 15 -24 -4z"/>
<path d="M4571 2786 c-6 -16 -10 -37 -8 -45 3 -11 8 -7 16 13 6 16 10 37 8 45
-3 11 -8 7 -16 -13z"/>
<path d="M8068 2712 c-6 -21 1 -42 13 -42 12 0 12 47 0 54 -5 3 -11 -2 -13
-12z"/>
<path d="M4316 2692 c-9 -18 -15 -41 -13 -50 3 -12 9 -5 21 21 22 49 15 73 -8
29z"/>
<path d="M4516 2671 c-18 -34 -19 -41 -8 -41 9 0 34 61 28 68 -3 2 -12 -10
-20 -27z"/>
<path d="M4410 2646 c0 -14 5 -28 10 -31 6 -4 10 7 10 24 0 17 -4 31 -10 31
-5 0 -10 -11 -10 -24z"/>
<path d="M7860 2621 c0 -19 23 -71 31 -71 12 0 11 10 -2 49 -10 28 -29 43 -29
22z"/>
<path d="M4218 2586 c-4 -39 0 -56 13 -56 5 0 9 20 9 45 0 53 -16 61 -22 11z"/>
<path d="M8005 2580 c-9 -14 4 -52 16 -45 12 8 12 55 0 55 -6 0 -13 -5 -16
-10z"/>
<path d="M4427 2527 c-4 -10 -7 -26 -7 -35 1 -15 2 -15 11 1 6 10 9 25 7 35
-3 16 -4 15 -11 -1z"/>
<path d="M4616 2532 c-3 -5 -8 -32 -12 -60 -8 -64 11 -73 21 -9 3 23 9 50 11
60 5 17 -10 24 -20 9z"/>
<path d="M7850 2509 c0 -17 4 -28 10 -24 6 3 10 17 10 31 0 13 -4 24 -10 24
-5 0 -10 -14 -10 -31z"/>
<path d="M4750 2486 c-12 -34 -13 -53 -1 -60 8 -5 22 74 15 83 -2 2 -8 -8 -14
-23z"/>
<path d="M8082 2455 c3 -30 8 -58 11 -62 14 -14 18 7 12 61 -9 73 -29 74 -23
1z"/>
<path d="M7733 2445 c0 -27 2 -38 4 -22 2 15 2 37 0 50 -2 12 -4 0 -4 -28z"/>
<path d="M4537 2473 c-7 -11 18 -51 26 -43 3 3 0 16 -7 29 -7 13 -16 19 -19
14z"/>
<path d="M4340 2435 c0 -19 5 -35 10 -35 6 0 10 16 10 35 0 19 -4 35 -10 35
-5 0 -10 -16 -10 -35z"/>
<path d="M7681 2429 c-1 -33 18 -89 31 -89 5 0 6 5 2 11 -4 6 -12 32 -19 58
-10 33 -13 39 -14 20z"/>
<path d="M7647 2403 c-10 -10 -8 -76 3 -93 7 -11 10 2 10 43 0 58 -1 62 -13
50z"/>
<path d="M8010 2388 c0 -27 19 -68 31 -68 15 0 3 50 -17 70 -12 12 -14 12 -14
-2z"/>
<path d="M4740 2358 c0 -18 5 -40 10 -48 7 -11 10 -2 10 33 0 26 -4 47 -10 47
-5 0 -10 -15 -10 -32z"/>
<path d="M4270 2361 c0 -19 17 -38 25 -29 7 7 -7 48 -16 48 -5 0 -9 -9 -9 -19z"/>
<path d="M7870 2336 c0 -15 18 -31 26 -23 7 7 -7 37 -17 37 -5 0 -9 -6 -9 -14z"/>
<path d="M7920 2302 c0 -21 26 -60 34 -51 7 7 -16 69 -26 69 -4 0 -8 -8 -8
-18z"/>
<path d="M4410 2281 c0 -17 5 -33 10 -36 6 -4 10 8 10 29 0 20 -4 36 -10 36
-5 0 -10 -13 -10 -29z"/>
<path d="M4526 2238 c14 -48 23 -66 34 -73 7 -5 9 2 4 22 -12 49 -23 73 -34
73 -7 0 -9 -9 -4 -22z"/>
<path d="M4828 2215 c-2 -27 1 -44 7 -42 13 5 19 87 7 87 -6 0 -12 -20 -14
-45z"/>
<path d="M7620 2250 c0 -5 5 -10 10 -10 6 0 10 5 10 10 0 6 -4 10 -10 10 -5 0
-10 -4 -10 -10z"/>
<path d="M7537 2173 c-6 -52 -1 -66 13 -43 12 19 13 90 1 90 -4 0 -11 -21 -14
-47z"/>
<path d="M7727 2214 c-10 -11 -8 -89 3 -118 17 -45 26 -28 22 42 -4 66 -12 89
-25 76z"/>
<path d="M5060 2100 c0 -37 54 -100 85 -100 15 0 2 19 -15 23 -12 3 -28 22
-38 46 -16 38 -32 54 -32 31z"/>
<path d="M4640 2054 c0 -59 24 -55 28 4 2 33 0 42 -12 42 -12 0 -16 -11 -16
-46z"/>
<path d="M4874 2056 c-7 -29 4 -69 17 -61 12 8 12 72 -1 80 -5 3 -12 -5 -16
-19z"/>
<path d="M5630 2039 c0 -23 18 -61 34 -71 18 -12 28 3 13 20 -8 10 -17 29 -21
45 -7 32 -26 36 -26 6z"/>
<path d="M6470 2042 c0 -23 86 -122 107 -122 7 0 -11 29 -39 65 -48 60 -68 77
-68 57z"/>
<path d="M5000 1994 c0 -21 4 -33 10 -29 6 3 10 19 10 36 0 16 -4 29 -10 29
-5 0 -10 -16 -10 -36z"/>
<path d="M5800 2007 c0 -34 32 -72 53 -64 10 4 17 11 17 16 0 6 -7 8 -14 5
-11 -4 -18 4 -23 27 -11 40 -33 51 -33 16z"/>
<path d="M6812 1974 c3 -30 11 -62 20 -70 13 -13 14 -9 11 43 -5 70 -9 83 -24
83 -8 0 -10 -18 -7 -56z"/>
<path d="M6920 2008 c0 -36 20 -98 31 -98 6 0 7 15 4 38 -11 68 -15 82 -25 82
-6 0 -10 -10 -10 -22z"/>
<path d="M7030 2022 c0 -29 33 -113 43 -109 15 5 12 36 -7 82 -13 31 -36 48
-36 27z"/>
<path d="M7165 2010 c-9 -14 6 -81 16 -74 12 7 12 84 0 84 -6 0 -13 -4 -16
-10z"/>
<path d="M7350 1934 c0 -54 4 -83 10 -79 6 3 10 42 10 86 0 46 -4 79 -10 79
-6 0 -10 -35 -10 -86z"/>
<path d="M6680 1985 c0 -36 23 -106 32 -97 5 5 4 27 -3 56 -12 47 -29 71 -29
41z"/>
<path d="M7501 1963 c-13 -47 -14 -73 -1 -73 9 0 30 61 30 87 0 29 -20 20 -29
-14z"/>
<path d="M6160 1982 c0 -17 73 -72 96 -72 9 0 -79 79 -88 80 -5 0 -8 -4 -8 -8z"/>
<path d="M6340 1985 c0 -18 33 -65 45 -65 11 0 10 7 -6 35 -18 30 -39 46 -39
30z"/>
<path d="M7274 1975 c-8 -19 2 -45 16 -45 5 0 10 14 10 30 0 31 -16 41 -26 15z"/>
<path d="M5280 1972 c0 -12 39 -52 50 -52 16 0 11 14 -14 38 -25 23 -36 27
-36 14z"/>
<path d="M5440 1952 c0 -33 14 -53 55 -78 30 -18 30 -18 12 2 -9 11 -14 24
-10 28 4 3 -3 13 -15 22 -12 8 -22 24 -22 35 0 10 -4 19 -10 19 -5 0 -10 -13
-10 -28z"/>
<path d="M5570 1968 c0 -23 40 -80 53 -75 7 2 17 -10 22 -27 6 -18 18 -32 30
-34 16 -3 18 -1 8 9 -7 7 -13 21 -13 30 0 10 -13 26 -30 35 -16 10 -34 31 -39
46 -10 28 -31 39 -31 16z"/>
<path d="M4670 1961 c0 -12 29 -41 41 -41 15 0 10 16 -9 33 -21 19 -32 22 -32
8z"/>
<path d="M5960 1952 c0 -5 7 -17 16 -28 14 -17 15 -17 10 -1 -3 10 -6 23 -6
28 0 5 -4 9 -10 9 -5 0 -10 -4 -10 -8z"/>
<path d="M4828 1892 c-5 -60 -2 -82 13 -82 12 0 12 127 0 134 -5 3 -11 -20
-13 -52z"/>
<path d="M6080 1917 c0 -35 38 -160 54 -175 9 -9 22 -12 33 -8 16 7 16 9 2 19
-16 13 -41 72 -59 145 -11 45 -30 57 -30 19z"/>
<path d="M7156 1883 c-3 -3 -6 -21 -6 -39 0 -18 -7 -40 -16 -49 -19 -18 -13
-30 11 -21 18 6 35 46 35 81 0 25 -12 39 -24 28z"/>
<path d="M5267 1863 c-4 -3 -7 -25 -7 -47 -1 -41 -1 -41 -15 -16 -8 14 -14 33
-15 43 0 9 -7 17 -16 17 -21 0 -12 -43 16 -82 11 -15 20 -34 20 -42 0 -25 18
-27 24 -3 21 86 18 155 -7 130z"/>
<path d="M5020 1854 c0 -17 24 -46 50 -59 17 -9 30 -14 30 -12 0 2 -15 21 -34
41 -33 34 -46 43 -46 30z"/>
<path d="M7406 1844 c-3 -9 -6 -25 -6 -37 0 -27 16 -11 25 26 8 29 -8 39 -19
11z"/>
<path d="M6580 1800 c0 -27 0 -53 -1 -57 0 -4 4 -9 10 -11 7 -2 11 18 11 57 0
34 -4 61 -10 61 -5 0 -10 -22 -10 -50z"/>
<path d="M6870 1781 c0 -79 15 -95 25 -28 8 55 4 89 -12 95 -10 3 -13 -15 -13
-67z"/>
<path d="M5426 1832 c-9 -15 37 -87 69 -108 15 -9 32 -13 42 -9 16 6 16 8 -3
15 -21 8 -55 44 -85 90 -10 16 -18 20 -23 12z"/>
<path d="M4874 1805 c-3 -14 -4 -40 0 -58 4 -25 3 -28 -5 -14 -13 23 -29 22
-29 -3 0 -23 47 -58 59 -44 11 12 1 144 -10 144 -5 0 -11 -11 -15 -25z"/>
<path d="M7032 1773 c2 -28 7 -46 13 -43 6 3 9 14 9 25 -1 11 -2 30 -3 43 0
12 -6 22 -12 22 -6 0 -9 -19 -7 -47z"/>
<path d="M4990 1799 c0 -19 70 -99 86 -99 9 0 -2 20 -28 54 -43 55 -58 66 -58
45z"/>
<path d="M5790 1796 c0 -8 13 -28 29 -45 29 -31 51 -40 51 -21 0 6 -5 10 -10
10 -6 0 -20 16 -31 35 -22 36 -39 46 -39 21z"/>
<path d="M5900 1791 c0 -11 5 -23 10 -26 6 -4 10 5 10 19 0 14 -4 26 -10 26
-5 0 -10 -9 -10 -19z"/>
<path d="M5305 1773 c7 -29 52 -83 68 -83 5 0 2 10 -7 23 -9 12 -23 37 -31 55
-19 40 -40 43 -30 5z"/>
<path d="M6216 1792 c-7 -11 31 -72 44 -72 13 0 13 3 -7 45 -17 35 -27 43 -37
27z"/>
<path d="M6290 1791 c0 -5 7 -25 15 -45 12 -28 21 -36 40 -36 14 0 25 5 25 10
0 6 -7 10 -16 10 -8 0 -22 16 -30 35 -13 32 -34 48 -34 26z"/>
<path d="M5585 1778 c-8 -21 21 -78 40 -78 17 0 20 16 5 25 -6 4 -17 21 -24
38 -11 26 -15 29 -21 15z"/>
<path d="M7245 1751 c-4 -22 -15 -57 -26 -77 -21 -43 -18 -55 10 -30 29 26 55
146 32 146 -5 0 -12 -18 -16 -39z"/>
<path d="M6080 1751 c0 -13 29 -35 37 -28 7 8 -15 37 -28 37 -5 0 -9 -4 -9 -9z"/>
<path d="M7080 1705 c0 -37 -7 -70 -21 -96 -25 -50 -16 -63 16 -24 36 45 48
163 18 173 -10 3 -13 -12 -13 -53z"/>
<path d="M5704 1714 c9 -34 33 -64 53 -64 19 0 16 13 -6 27 -11 7 -21 22 -23
34 -2 12 -9 24 -17 27 -11 4 -12 -2 -7 -24z"/>
<path d="M6666 1710 c-6 -32 7 -70 24 -70 11 0 2 80 -10 93 -4 5 -10 -6 -14
-23z"/>
<path d="M6750 1713 c0 -31 15 -61 26 -51 9 10 -5 78 -16 78 -6 0 -10 -12 -10
-27z"/>
<path d="M7331 1705 c-26 -45 -9 -56 18 -11 23 37 25 46 12 46 -5 0 -18 -16
-30 -35z"/>
<path d="M5947 1723 c-19 -18 10 -63 40 -63 14 0 14 2 0 18 -10 10 -17 26 -17
35 0 17 -11 22 -23 10z"/>
<path d="M6470 1707 c0 -24 27 -63 37 -54 2 3 0 20 -4 38 -11 40 -33 51 -33
16z"/>
<path d="M6967 1663 c7 -76 7 -78 23 -68 19 12 0 135 -21 135 -4 0 -6 -30 -2
-67z"/>
<path d="M6910 1703 c0 -5 7 -18 15 -29 15 -18 15 -18 13 5 -3 23 -28 44 -28
24z"/>
<path d="M5830 1677 c0 -24 37 -73 48 -63 7 7 -30 86 -40 86 -5 0 -8 -10 -8
-23z"/>
<path d="M6167 1693 c-5 -10 17 -120 26 -129 16 -16 19 9 7 71 -11 59 -22 78
-33 58z"/>
<path d="M5350 1667 c0 -20 30 -57 46 -57 8 0 34 -20 57 -45 48 -49 54 -52 83
-30 18 14 18 14 -6 15 -35 0 -65 23 -80 60 -10 25 -17 30 -35 26 -17 -4 -25 0
-33 19 -12 26 -32 34 -32 12z"/>
<path d="M5170 1657 c0 -25 64 -123 90 -137 16 -9 25 -8 36 1 20 17 17 31 -6
24 -15 -5 -26 3 -47 35 -15 23 -38 53 -50 68 -18 22 -22 24 -23 9z"/>
<path d="M6590 1613 c-6 -32 -13 -64 -15 -70 -7 -20 13 -15 24 5 5 10 13 42
17 70 9 73 -11 68 -26 -5z"/>
<path d="M6010 1638 c0 -28 46 -128 58 -128 20 0 18 14 -9 63 -16 29 -29 60
-29 70 0 9 -4 17 -10 17 -5 0 -10 -10 -10 -22z"/>
<path d="M5486 1623 c10 -42 23 -63 39 -63 19 0 18 10 0 34 -8 11 -15 28 -15
38 0 10 -7 18 -15 18 -12 0 -14 -7 -9 -27z"/>
<path d="M6821 1584 c0 -11 3 -14 6 -6 3 7 2 16 -1 19 -3 4 -6 -2 -5 -13z"/>
<path d="M7137 1573 c-6 -34 1 -53 20 -53 11 0 14 6 9 23 -3 12 -6 30 -6 40 0
27 -17 20 -23 -10z"/>
<path d="M5080 1576 c0 -15 30 -50 37 -43 6 7 -19 57 -29 57 -4 0 -8 -6 -8
-14z"/>
<path d="M6120 1572 c0 -5 8 -17 18 -28 10 -11 22 -31 25 -44 8 -30 73 -120
87 -120 17 0 11 13 -36 80 -24 36 -40 66 -35 68 6 2 -2 14 -18 28 -30 25 -41
29 -41 16z"/>
<path d="M5630 1561 c0 -5 12 -23 26 -40 18 -22 35 -31 55 -31 18 0 28 4 24
10 -3 6 -15 10 -25 10 -11 0 -29 14 -42 30 -22 30 -38 39 -38 21z"/>
<path d="M6305 1560 c-3 -5 3 -14 14 -19 23 -13 31 -14 31 -3 0 13 -39 32 -45
22z"/>
<path d="M6410 1526 c0 -19 5 -38 10 -41 6 -4 10 10 10 34 0 23 -4 41 -10 41
-5 0 -10 -15 -10 -34z"/>
<path d="M6837 1546 c-3 -8 -1 -31 4 -50 12 -45 34 -49 25 -5 -3 17 -6 40 -6
50 0 22 -15 25 -23 5z"/>
<path d="M6707 1543 c-9 -8 2 -102 15 -127 19 -36 28 -1 17 60 -12 62 -21 79
-32 67z"/>
<path d="M5320 1509 c0 -9 9 -24 20 -34 26 -23 26 -4 0 26 -15 18 -19 20 -20
8z"/>
<path d="M5534 1479 c6 -33 21 -57 30 -48 9 9 -10 73 -23 77 -11 4 -13 -3 -7
-29z"/>
<path d="M6538 1480 c-5 -30 3 -46 16 -33 9 10 7 63 -3 63 -5 0 -11 -14 -13
-30z"/>
<path d="M7059 1488 c-6 -13 -21 -31 -33 -40 l-21 -18 21 0 c22 0 47 23 57 52
9 27 -11 31 -24 6z"/>
<path d="M6460 1472 c0 -24 34 -52 63 -52 l32 1 -33 14 c-18 8 -35 21 -38 30
-6 15 -24 21 -24 7z"/>
<path d="M6910 1445 c-6 -19 -18 -35 -26 -35 -18 0 -19 -46 -1 -53 18 -7 43
14 45 38 0 11 4 35 8 53 9 44 -11 42 -26 -3z"/>
<path d="M5700 1464 c0 -15 41 -61 69 -77 45 -26 41 -1 -7 46 -34 33 -62 47
-62 31z"/>
<path d="M6036 1402 c-3 -5 3 -17 14 -27 17 -15 20 -16 20 -3 0 19 -26 42 -34
30z"/>
<path d="M5400 1378 c0 -20 62 -78 83 -78 25 0 22 6 -24 48 -48 43 -59 49 -59
30z"/>
<path d="M6190 1351 c0 -13 29 -35 37 -28 7 8 -15 37 -28 37 -5 0 -9 -4 -9 -9z"/>
<path d="M6010 1340 c0 -14 48 -43 60 -35 17 10 11 25 -9 25 -11 0 -23 5 -26
10 -8 13 -25 13 -25 0z"/>
<path d="M6350 1341 c0 -21 36 -52 53 -46 23 9 22 25 -2 25 -10 0 -21 7 -25
15 -6 16 -26 21 -26 6z"/>
<path d="M5596 1331 c-3 -4 5 -18 19 -31 19 -18 30 -21 52 -14 25 7 26 8 7 11
-12 2 -30 13 -40 24 -19 21 -30 24 -38 10z"/>
<path d="M6590 1327 c0 -16 37 -57 50 -57 14 0 12 8 -7 41 -18 30 -43 39 -43
16z"/>
<path d="M5780 1287 c0 -23 47 -60 67 -53 17 7 17 8 -2 18 -11 6 -26 20 -33
30 -15 21 -32 24 -32 5z"/>
<path d="M6440 1283 c0 -28 37 -60 56 -48 16 10 16 32 0 27 -5 -2 -19 7 -32
19 -23 22 -24 22 -24 2z"/>
<path d="M6180 1250 c0 -27 3 -30 29 -30 17 0 33 5 36 10 3 6 -4 10 -15 10
-13 0 -24 8 -27 20 -8 30 -23 24 -23 -10z"/>
<path d="M6020 1224 c0 -21 4 -34 11 -32 6 2 10 7 10 11 -1 4 -1 18 -1 32 0
14 -4 25 -10 25 -5 0 -10 -16 -10 -36z"/>
<path d="M6310 1251 c0 -6 11 -18 25 -27 20 -13 28 -14 40 -4 22 19 18 28 -10
22 -14 -2 -32 1 -40 8 -10 8 -15 9 -15 1z"/>
</g>
</svg>
